<svg width="112" height="109.843" xmlns="http://www.w3.org/2000/svg">
 <metadata id="metadata39">image/svg+xml</metadata>
 <g>
  <title>Layer 1</title>
  <g id="g3">
   <path fill="#ffffff" id="path5" d="m54.899998,109.344002c-29.995998,0 -54.400002,-24.414001 -54.400002,-54.421001c0,-30.009001 24.404001,-54.422001 54.400002,-54.422001c29.995007,0 54.398006,24.414 54.398006,54.422001c0,30.007 -24.403,54.421001 -54.398006,54.421001l0,0z"/>
   <path fill="#004883" id="path7" d="m54.899998,1c29.766003,0 53.898006,24.141001 53.898006,53.922001c0,29.781002 -24.132004,53.921001 -53.898006,53.921001c-29.767998,0 -53.900002,-24.139999 -53.900002,-53.921001c0,-29.781 24.132002,-53.922001 53.900002,-53.922001m0,-1c-30.271999,0 -54.900002,24.638 -54.900002,54.922001c0,30.284 24.628002,54.921001 54.900002,54.921001c30.271008,0 54.898006,-24.638 54.898006,-54.921001c0,-30.284 -24.627007,-54.922001 -54.898006,-54.922001l0,0z"/>
  </g>
  <g id="g29">
   <path fill="#e32934" id="path31" d="m85.720001,14.063999c-0.450996,-0.335999 -0.887001,-0.722 -1.316002,-1.139999c-8.344994,-5.879 -18.522995,-9.335 -29.504002,-9.335c-28.336998,0 -51.308999,22.981999 -51.308999,51.332001c0,11.491001 3.778,22.098995 10.153001,30.656002c17.169997,-5.070007 32.149997,-13.890007 44.987998,-26.639c12.822002,-12.688004 21.832005,-27.705002 26.988003,-44.874004z"/>
   <path fill="#004883" id="path33" d="m54.899998,106.253998c28.335003,0 51.307003,-22.986 51.307003,-51.333c0,-10.035 -2.879997,-19.391998 -7.854004,-27.297001c-0.130997,-0.132999 -0.249992,-0.273998 -0.349998,-0.426998c1.031006,3.407997 1.569,6.949997 1.569,10.625999c0,5.824997 -1.346001,11.338001 -3.989998,16.5c-2.644997,4.93 -6.231003,9.098 -10.759003,12.460999c-3.585999,2.646004 -7.889999,4.888 -12.957001,6.724998c-4.032997,1.476006 -9.279003,3.002007 -15.778,4.479004l-18.739998,4.215996c-7.967001,1.826004 -15.223,3.781006 -21.686998,5.782005c9.411003,11.171997 23.494997,18.267998 39.239,18.267998l-0.000004,0z"/>
  </g>
 </g>
</svg>